HIERARCHY
ROOT base
{
	OFFSET 0.000000 0.000000 0.000000
	CHANNELS 6 Xposition Yposition Zposition Xrotation Yrotation Zrotation
	JOINT torso
	{
		OFFSET 0.000000 0.000000 0.686711
		CHANNELS 3 Xrotation Yrotation Zrotation
		JOINT head
		{
			OFFSET 0.000000 0.000000 0.327530
			CHANNELS 3 Xrotation Yrotation Zrotation
			End Site
			{
				OFFSET 0.000000 0.000000 0.135284
			}
		}
		JOINT arm.upper.left
		{
			OFFSET 0.119493 0.000000 0.294566
			CHANNELS 6 Xposition Yposition Zposition Xrotation Yrotation Zrotation
			JOINT arm.lower.left
			{
				OFFSET 0.002060 0.000000 -0.253407
				CHANNELS 3 Xrotation Yrotation Zrotation
				End Site
				{
					OFFSET 0.016482 0.000000 -0.185420
				}
			}
		}
		JOINT arm.upper.right
		{
			OFFSET -0.119493 0.000000 0.294566
			CHANNELS 6 Xposition Yposition Zposition Xrotation Yrotation Zrotation
			JOINT arm.lower.right
			{
				OFFSET -0.002060 0.000000 -0.253407
				CHANNELS 3 Xrotation Yrotation Zrotation
				End Site
				{
					OFFSET -0.016482 0.000000 -0.185420
				}
			}
		}
	}
	JOINT leg.upper.left
	{
		OFFSET 0.067642 0.000000 0.633309
		CHANNELS 6 Xposition Yposition Zposition Xrotation Yrotation Zrotation
		JOINT leg.lower.left
		{
			OFFSET 0.000000 0.000000 -0.291929
			CHANNELS 3 Xrotation Yrotation Zrotation
			End Site
			{
				OFFSET 0.014240 0.000000 -0.334650
			}
		}
	}
	JOINT leg.upper.right
	{
		OFFSET -0.067642 0.000000 0.633309
		CHANNELS 6 Xposition Yposition Zposition Xrotation Yrotation Zrotation
		JOINT leg.lower.right
		{
			OFFSET 0.000000 0.000000 -0.291929
			CHANNELS 3 Xrotation Yrotation Zrotation
			End Site
			{
				OFFSET -0.014240 0.000000 -0.334650
			}
		}
	}
}
MOTION
Frames: 20
Frame Time: 0.041667
0.000000 0.000000 0.000000 -0.000000 0.000000 -0.000000 -0.000000 0.000000 -0.000000 -0.000000 0.000000 -0.000000 0.119493 0.000000 0.294566 0.000000 -0.001481 -0.000010 -0.000000 0.000000 -0.000000 -0.119493 0.000000 0.294566 0.000000 0.000174 0.000004 -89.130950 0.000019 -0.009828 0.067642 0.000000 0.633309 -0.000000 0.000000 0.000000 0.000000 0.000000 -0.000000 -0.067642 0.000000 0.633309 -0.000000 -0.000000 0.000000 -0.000000 0.000000 0.000000 
0.000000 0.000000 0.000000 -0.000000 0.000000 -0.000000 -0.000000 0.000000 -4.575477 -0.000000 0.000000 -0.000000 0.119493 0.000000 0.294566 -0.003791 -0.087024 -0.000114 -0.630182 1.023925 0.032786 -0.119493 0.000000 0.294566 0.569973 1.322123 -0.955463 -89.126524 0.834077 0.050297 0.067642 0.000000 0.633309 -0.875984 -0.040970 -0.010206 -0.032014 0.200059 -0.008272 -0.067642 0.000000 0.633309 0.705899 0.005074 -0.006456 0.032466 -0.192045 -0.007173 
0.000000 0.000000 0.000000 -0.000000 0.000000 -0.000000 -0.000000 0.000000 -17.802268 -0.000000 0.000000 -0.000000 0.119493 0.000000 0.294566 -0.036578 -0.327971 -0.001081 -2.622388 3.995023 0.176874 -0.119493 0.000000 0.294566 2.301749 5.000527 -3.731620 -89.003212 3.250527 0.147414 0.067642 0.000000 0.633309 -3.345716 -0.196772 -0.043540 -0.122042 0.763615 -0.030972 -0.067642 0.000000 0.633309 2.695385 0.048738 -0.025684 0.123792 -0.733020 -0.026795 
0.000000 0.000000 0.000000 -0.000000 0.000000 -0.000000 -0.000000 0.000000 -35.077249 -0.000000 0.000000 -0.000000 0.119493 0.000000 0.294566 -0.138037 -0.637344 -0.004406 -5.775404 8.035803 0.517120 -0.119493 0.000000 0.294566 4.810029 9.595470 -7.498236 -88.533923 6.534220 0.061893 0.067642 0.000000 0.633309 -6.519124 -0.505037 -0.102458 -0.237340 1.487290 -0.058827 -0.067642 0.000000 0.633309 5.250940 0.183724 -0.056251 0.240810 -1.427695 -0.050729 
0.000000 0.000000 0.000000 -0.000000 0.000000 -0.000000 -0.000000 0.000000 -48.304047 -0.000000 0.000000 -0.000000 0.119493 0.000000 0.294566 -0.332610 -0.878276 -0.011298 -9.387595 11.618889 0.991636 -0.119493 0.000000 0.294566 6.999593 13.049173 -10.610939 -87.532528 9.444866 -0.438665 0.067642 0.000000 0.633309 -8.990060 -0.956999 -0.176953 -0.326920 2.050923 -0.079519 -0.067642 0.000000 0.633309 7.240746 0.443155 -0.094028 0.331771 -1.968738 -0.068392 
0.000000 0.000000 0.000000 -0.000000 0.000000 -0.000000 -0.000000 0.000000 -52.879526 -0.000000 0.000000 -0.000002 0.119493 0.000000 0.294566 -0.611664 -0.963767 -0.021207 -12.738001 13.706283 1.366188 -0.119493 0.000000 0.294566 7.840002 14.259729 -11.772243 -86.001063 11.113422 -1.410941 0.067642 0.000000 0.633309 -9.867883 -1.505966 -0.241692 -0.358680 2.251025 -0.086654 -0.067642 0.000000 0.633309 7.947237 0.817017 -0.129197 0.364029 -2.160821 -0.074458 
0.000000 0.000000 0.000000 -0.000000 0.000000 -0.000000 -0.000000 0.000000 -49.849924 -0.000000 0.000000 0.000002 0.119493 0.000000 0.294566 -2.758473 -0.074667 -0.049108 -16.331758 14.858269 1.586490 -0.119493 0.000000 0.294566 6.387256 14.096259 -10.932467 -83.606782 11.391126 -3.321224 0.067642 0.000000 0.633309 -9.781149 -2.244658 -0.302745 -0.355336 2.250555 -0.085865 -0.067642 0.000000 0.633309 7.858017 1.402470 -0.168392 0.358136 -2.160614 -0.073496 
0.000000 0.000000 0.000000 -0.000000 0.000000 -0.000000 -0.000000 0.000000 -40.593727 -0.000000 0.000000 0.000003 0.119493 0.000000 0.294566 -8.563339 2.586581 0.069798 -20.864374 15.824585 1.755994 -0.119493 0.000000 0.294566 2.044088 13.399716 -8.414003 -80.068300 10.222497 -6.564431 0.067642 0.000000 0.633309 -9.499545 -3.274119 -0.379507 -0.344657 2.246680 -0.083347 -0.067642 0.000000 0.633309 7.575545 2.297114 -0.222884 0.339899 -2.158936 -0.070491 
0.000000 0.000000 0.000000 -0.000000 0.000000 -0.000000 -0.000000 0.000000 -25.847410 -0.000000 0.000000 -0.000000 0.119493 0.000000 0.294566 -17.423504 6.651882 0.783201 -25.932097 16.562620 1.870328 -0.119493 -0.000000 0.294566 -4.541937 11.875754 -4.674101 -75.908981 7.648517 -10.616044 0.067642 0.000000 0.633309 -9.014824 -4.493704 -0.456209 -0.326378 2.234494 -0.079043 -0.067642 0.000000 0.633309 7.100811 3.407413 -0.279902 0.310072 -2.153682 -0.065502 
0.000000 0.000000 0.000000 -0.000000 0.000000 -0.000000 -0.000000 0.000000 -8.717039 -0.000000 0.000000 -0.000000 0.119493 0.000000 0.294566 -27.646044 11.102341 2.372623 -30.806814 17.057233 1.925618 -0.119493 0.000000 0.294566 -11.847527 9.485423 -0.707741 -71.956063 4.224418 -14.615263 0.067642 0.000000 0.633309 -8.358680 -5.713076 -0.512038 -0.301806 2.208617 -0.073257 -0.067642 0.000000 0.633309 6.477004 4.547854 -0.322438 0.272341 -2.142548 -0.059053 
0.000000 0.000000 0.000000 -0.000000 0.000000 -0.000000 -0.000000 0.000000 6.137379 -0.000000 0.000000 -0.000000 0.119493 0.000000 0.294566 -36.794072 14.713344 4.431452 -34.689380 17.337667 1.931849 -0.119493 0.000000 0.294566 -18.052579 6.734907 2.427306 -68.933268 0.937288 -17.764769 0.067642 0.000000 0.633309 -7.602188 -6.712923 -0.532066 -0.273723 2.165677 -0.066638 -0.067642 0.000000 0.633309 5.783968 5.498468 -0.338613 0.232556 -2.124090 -0.052043 
0.000000 0.000000 0.000000 -0.000000 0.000000 -0.000000 -0.000000 0.000000 15.474796 -0.000000 0.000000 -0.000000 0.119493 0.000000 0.294566 -42.836061 16.855321 6.084356 -37.072518 17.463281 1.914835 -0.119493 0.000000 0.294566 -21.962229 4.362934 4.204894 -67.151326 -1.315245 -19.666459 0.067642 0.000000 0.633309 -6.825262 -7.341611 -0.515110 -0.245181 2.105789 -0.059895 -0.067642 0.000000 0.633309 5.103626 6.101876 -0.327936 0.196174 -2.098359 -0.045353 
0.000000 0.000000 0.000000 -0.000000 0.000000 -0.000000 -0.000000 0.000000 18.472609 -0.000000 0.000000 -0.000000 0.119493 0.000000 0.294566 -44.879168 17.531709 6.691153 -37.844265 17.494162 1.903781 -0.119493 0.000000 0.294566 -23.221624 2.840161 4.617307 -66.586469 -2.090846 -20.279438 0.067642 0.000000 0.633309 -6.086098 -7.551610 -0.470394 -0.218321 2.031577 -0.053524 -0.067642 0.000000 0.633309 4.490335 6.303187 -0.297971 0.166397 -2.066482 -0.039535 
0.000000 0.000000 0.000000 -0.000000 0.000000 -0.000000 -0.000000 0.000000 17.571275 -0.000000 0.000000 -0.000000 0.119493 -0.000000 0.294566 -42.778366 16.901458 6.094832 -36.083975 16.766286 1.561357 -0.119493 0.000000 0.294566 -22.134384 1.916929 4.221492 -67.573971 -1.827787 -19.396190 0.067642 0.000000 0.633309 -5.240119 -7.214328 -0.389429 -0.187954 1.875160 -0.046356 -0.067642 0.000000 0.633309 3.828998 6.019827 -0.245566 0.138058 -1.945148 -0.033612 
0.000000 0.000000 0.000000 -0.000000 0.000000 -0.000000 -0.000000 0.000000 15.078814 -0.000000 0.000000 -0.000000 0.119493 -0.000000 0.294566 -36.565141 14.894578 4.466595 -30.889568 14.537207 0.684860 -0.119493 0.000000 0.294566 -19.005531 1.230639 3.502329 -70.533308 -1.136056 -16.744747 0.067642 0.000000 0.633309 -4.149042 -6.204541 -0.271608 -0.149012 1.572081 -0.037146 -0.067642 0.000000 0.633309 3.007407 5.175655 -0.171350 0.105917 -1.654752 -0.026514 
0.000000 0.000000 0.000000 -0.000000 0.000000 -0.000000 -0.000000 0.000000 11.320664 -0.000000 0.000000 -0.000000 0.119493 0.000000 0.294566 -27.160630 11.485284 2.430063 -23.031743 10.973057 -0.241142 -0.119493 -0.000000 0.294566 -14.250718 0.746931 2.557526 -75.128495 -0.344507 -12.617163 0.067642 0.000000 0.633309 -2.918184 -4.660303 -0.151612 -0.105035 1.158603 -0.026554 -0.067642 0.000000 0.633309 2.101260 3.886700 -0.096471 0.072557 -1.233037 -0.018705 
0.000000 0.000000 0.000000 -0.000000 0.000000 -0.000000 -0.000000 0.000000 7.061436 -0.000000 0.000000 -0.000000 0.119493 0.000000 0.294566 -16.683652 7.257669 0.848607 -14.232125 6.802194 -0.676157 -0.119493 -0.000000 0.294566 -8.863394 0.408231 1.560454 -80.412206 0.148653 -7.861445 0.067642 0.000000 0.633309 -1.728995 -2.905677 -0.063332 -0.062376 0.712444 -0.016003 -0.067642 0.000000 0.633309 1.238278 2.423251 -0.041235 0.042065 -0.764504 -0.011151 
0.000000 0.000000 0.000000 -0.000000 0.000000 -0.000000 -0.000000 0.000000 3.302618 -0.000000 0.000000 -0.000000 0.119493 0.000000 0.294566 -7.684537 3.384368 0.126802 -6.596538 3.132089 -0.524450 -0.119493 0.000000 0.294566 -4.130928 0.175447 0.718044 -85.075498 0.217952 -3.661112 0.067642 0.000000 0.633309 -0.777688 -1.358214 -0.017984 -0.028105 0.329728 -0.007301 -0.067642 0.000000 0.633309 0.554538 1.132821 -0.012296 0.018586 -0.356000 -0.005042 
0.000000 0.000000 0.000000 -0.000000 0.000000 -0.000000 -0.000000 0.000000 0.834348 -0.000000 0.000000 -0.000000 0.119493 0.000000 0.294566 -1.920771 0.846603 -0.011097 -1.656147 0.779368 -0.165429 -0.119493 0.000000 0.294566 -1.040775 0.040894 0.179653 -88.112015 0.079170 -0.926902 0.067642 0.000000 0.633309 -0.190838 -0.343003 -0.002723 -0.006903 0.082670 -0.001808 -0.067642 0.000000 0.633309 0.135598 0.286117 -0.002019 0.004495 -0.089663 -0.001239 
0.000000 0.000000 0.000000 -0.000000 0.000000 -0.000000 -0.000000 0.000000 -0.000000 -0.000000 0.000000 -0.000000 0.119493 0.000000 0.294566 0.000000 -0.001481 -0.000010 -0.000000 0.000000 -0.000000 -0.119493 0.000000 0.294566 0.000000 0.000174 0.000004 -89.130950 0.000018 -0.009828 0.067642 0.000000 0.633309 -0.000000 0.000000 0.000000 0.000000 0.000000 -0.000000 -0.067642 0.000000 0.633309 -0.000000 -0.000000 0.000000 -0.000000 0.000000 0.000000 
